HIERARCHY
ROOT Quadruped
{
	OFFSET	0	18	-7.5
	CHANNELS 6 Xposition Yposition Zposition Zrotation Xrotation Yrotation
	JOINT QuadrupedLegRight0
	{
		OFFSET	0	-1	2.5
		CHANNELS 3 Zrotation Xrotation Yrotation
		JOINT QuadrupedLegRight1
		{
			OFFSET	0	-8	-0
			CHANNELS 3 Zrotation Xrotation Yrotation
			JOINT QuadrupedLegRight2
			{
				OFFSET	0	-9	-0
				CHANNELS 3 Zrotation Xrotation Yrotation
				End Site
				{
					OFFSET	0	-0.9	-0
				}
			}
		}
	}
	JOINT QuadrupedLegLeft0
	{
		OFFSET	0	-1	-2.5
		CHANNELS 3 Zrotation Xrotation Yrotation
		JOINT QuadrupedLegLeft1
		{
			OFFSET	0	-8	-0
			CHANNELS 3 Zrotation Xrotation Yrotation
			JOINT QuadrupedLegLeft2
			{
				OFFSET	0	-9	-0
				CHANNELS 3 Zrotation Xrotation Yrotation
				End Site
				{
					OFFSET	0	-0.9	-0
				}
			}
		}
	}
	JOINT TRONC
	{
		OFFSET	15	0	-0
		CHANNELS 3 Zrotation Xrotation Yrotation
		JOINT QuadrupedLegLeft0
		{
			OFFSET	0	-1	-2.5
			CHANNELS 3 Zrotation Xrotation Yrotation
			JOINT QuadrupedLegLeft1
			{
				OFFSET	0	-8	-0
				CHANNELS 3 Zrotation Xrotation Yrotation
				JOINT QuadrupedLegLeft2
				{
					OFFSET	0	-9	-0
					CHANNELS 3 Zrotation Xrotation Yrotation
					End Site
					{
						OFFSET	0	-0.9	-0
					}
				}
			}
		}
		JOINT QuadrupedLegRight0
		{
			OFFSET	0	-1	2.5
			CHANNELS 3 Zrotation Xrotation Yrotation
			JOINT QuadrupedLegRight1
			{
				OFFSET	0	-8	-0
				CHANNELS 3 Zrotation Xrotation Yrotation
				JOINT QuadrupedLegRight2
				{
					OFFSET	0	-9	-0
					CHANNELS 3 Zrotation Xrotation Yrotation
					End Site
					{
						OFFSET	0	-0.9	-0
					}
				}
			}
		}
		JOINT TRONC
		{
			OFFSET	8	0	-0
			CHANNELS 3 Zrotation Xrotation Yrotation
			End Site
			{
				OFFSET	0.8	0	-0
			}
		}
	}
}
MOTION
Frames:	80
Frame Time: 1
0	0	0	-0	-0	0	-0	0	0	-30	0	0	0	0	0	43	-10	-4	-67	8	0	0	0	-62	0	0	0	-0	0	0	-30	0	0	0	0	0	47	-9	-6	-68	5	0	0	0	-63	0	0	0	
0	0	0	-0	-0	0	-13	0	1	-36	0	0	0	0	-88	-0	0	0	-30	0	0	0	0	0	0	0	0	-0	0	0	-30	0	0	0	0	0	-0	0	0	-30	0	0	0	0	0	0	0	0	
0	0	0	-0	-0	0	-13	0	1	-36	0	0	0	0	-88	-0	0	0	-30	0	0	0	0	0	0	0	0	44	-1	-9	-83	6	0	0	0	63	-0	0	0	-30	0	0	0	0	0	0	0	0	
0	0	0	-0	-0	0	-0	0	0	-30	0	0	0	0	0	-0	0	0	-30	0	0	0	0	0	0	0	0	-0	0	0	-30	0	0	0	0	0	-0	0	0	-30	0	0	0	0	0	0	0	0	
0	0	0	-0	-0	0	44	-1	-9	-83	6	0	0	0	63	-0	0	0	-30	0	0	0	0	0	0	0	0	-0	0	0	-30	0	0	0	0	0	-0	0	0	-30	0	0	0	0	0	0	0	0	
0	0	0	-0	-0	0	-0	0	0	-30	0	0	0	0	0	-0	0	0	-30	0	0	0	0	0	0	0	0	6	0	-6	-68	9	0	0	0	144	-13	0	1	-36	0	0	0	0	-88	0	0	0	
0	0	0	-0	-0	0	-0	0	0	-30	0	0	0	0	0	44	-1	-9	-83	6	0	0	0	63	0	0	0	6	0	-6	-68	9	0	0	0	144	-13	0	1	-36	0	0	0	0	-88	0	0	0	
0	0	0	-0	-0	0	-0	0	0	-30	0	0	0	0	0	-0	0	0	-30	0	0	0	0	0	0	0	0	-0	0	0	-30	0	0	0	0	0	-0	0	0	-30	0	0	0	0	0	0	0	0	
0	0	0	-0	-0	0	-0	0	0	-30	0	0	0	0	0	-0	0	0	-30	0	0	0	0	0	0	0	0	-0	0	0	-30	0	0	0	0	0	44	-1	-9	-83	6	0	0	0	63	0	0	0	
0	0	0	-0	-0	0	6	0	-6	-68	9	0	0	0	144	-0	0	0	-30	0	0	0	0	0	0	0	0	-0	0	0	-30	0	0	0	0	0	-0	0	0	-30	0	0	0	0	0	0	0	0	
0	0	0	-0	-0	0	-0	0	0	-30	0	0	0	0	0	6	0	-6	-68	9	0	0	0	144	0	0	0	44	-1	-9	-83	6	0	0	0	63	-0	0	0	-30	0	0	0	0	0	0	0	0	
0	0	0	-0	-0	0	-0	0	0	-30	0	0	0	0	0	-0	0	0	-30	0	0	0	0	0	0	0	0	-0	0	0	-30	0	0	0	0	0	-0	0	0	-30	0	0	0	0	0	0	0	0	
0	0	0	-0	-0	0	44	-1	-9	-83	6	0	0	0	63	-0	0	0	-30	0	0	0	0	0	0	0	0	-0	0	0	-30	0	0	0	0	0	-0	0	0	-30	0	0	0	0	0	0	0	0	
0	0	0	-0	-0	0	-0	0	0	-30	0	0	0	0	0	-0	0	0	-30	0	0	0	0	0	0	0	0	-0	0	0	-30	0	0	0	0	0	-0	0	0	-30	0	0	0	0	0	0	0	0	
0	0	0	-0	-0	0	-0	0	0	-30	0	0	0	0	0	44	-1	-9	-83	6	0	0	0	63	0	0	0	-0	0	0	-30	0	0	0	0	0	-0	0	0	-30	0	0	0	0	0	0	0	0	
0	0	0	-0	-0	0	-0	0	0	-30	0	0	0	0	0	-0	0	0	-30	0	0	0	0	0	0	0	0	-0	0	0	-30	0	0	0	0	0	-0	0	0	-30	0	0	0	0	0	0	0	0	
0	0	0	-0	-0	0	-0	0	0	-30	0	0	0	0	0	-0	0	0	-30	0	0	0	0	0	0	0	0	-0	0	0	-30	0	0	0	0	0	58	-3	-4	-38	4	0	0	0	-150	0	0	0	
0	0	0	-0	-0	0	-0	0	0	-30	0	0	0	0	0	-0	0	0	-30	0	0	0	0	0	0	0	0	-0	0	0	-30	0	0	0	0	0	65	-1	-11	-65	-6	0	0	0	4	0	0	0	
0	0	0	-0	-0	0	-0	0	0	-30	0	0	0	0	0	-0	0	0	-30	0	0	0	0	0	0	0	0	41	-20	6	-6	5	0	0	0	46	65	-1	-11	-65	-6	0	0	0	4	0	0	0	
0	0	0	-0	-0	0	-0	0	0	-30	0	0	0	0	0	-0	0	0	-30	0	0	0	0	0	0	0	0	53	-20	2	-44	1	0	0	0	168	60	0	-5	-75	-4	0	0	0	152	0	0	0	
0	0	0	-0	-0	0	44	-1	-9	-83	6	0	0	0	63	-0	0	0	-30	0	0	0	0	0	0	0	0	53	-20	2	-44	1	0	0	0	168	60	0	-5	-75	-4	0	0	0	152	0	0	0	
0	0	0	-0	-0	0	-0	0	0	-30	0	0	0	0	0	-0	0	0	-30	0	0	0	0	0	0	0	0	57	-26	9	-61	7	0	0	0	-77	54	0	2	-83	4	0	0	0	54	0	0	0	
0	0	0	-0	-0	0	-0	0	0	-30	0	0	0	0	0	44	-1	-9	-83	6	0	0	0	63	0	0	0	-0	0	0	-30	0	0	0	0	0	43	-6	-14	-83	-9	0	0	0	50	0	0	0	
0	0	0	-0	-0	0	-0	0	0	-30	0	0	0	0	0	-0	0	0	-30	0	0	0	0	0	0	0	0	-0	0	0	-30	0	0	0	0	0	-0	0	0	-30	0	0	0	0	0	0	0	0	
0	0	0	-0	-0	0	43	-3	7	-81	-10	0	0	0	-151	-0	0	0	-30	0	0	0	0	0	0	0	0	-0	0	0	-30	0	0	0	0	0	-0	0	0	-30	0	0	0	0	0	0	0	0	
0	0	0	-0	-0	0	43	-3	7	-81	-10	0	0	0	-151	-0	0	0	-30	0	0	0	0	0	0	0	0	-0	0	0	-30	0	0	0	0	0	-0	0	0	-30	0	0	0	0	0	0	0	0	
0	0	0	-0	-0	0	43	-3	7	-81	-10	0	0	0	-151	41	-1	11	-2	-3	0	0	0	141	0	0	0	-0	0	0	-30	0	0	0	0	0	-0	0	0	-30	0	0	0	0	0	0	0	0	
0	0	0	-0	-0	0	43	-3	7	-81	-10	0	0	0	-151	41	-1	11	-2	-3	0	0	0	141	0	0	0	-0	0	0	-30	0	0	0	0	0	-0	0	0	-30	0	0	0	0	0	0	0	0	
0	0	0	-0	-0	0	43	-3	7	-81	-10	0	0	0	-151	41	-1	11	-2	-3	0	0	0	141	0	0	0	-0	0	0	-30	0	0	0	0	0	83	-5	4	-37	10	0	0	0	114	0	0	0	
0	0	0	7.59464	-0	0	-0	0	0	-30	0	0	0	0	0	43	0	-10	-27	-7	0	0	0	-106	0	0	0	-0	0	0	-30	0	0	0	0	0	60	-4	-12	-27	0	0	0	0	38	0	0	0	
0	0	0	7.59464	-0	0	-0	0	0	-30	0	0	0	0	0	-0	0	0	-30	0	0	0	0	0	0	0	0	46	-15	1	-79	5	0	0	0	-153	-0	0	0	-30	0	0	0	0	0	0	0	0	
0	0	0	7.59464	-0	0	-0	0	0	-30	0	0	0	0	0	-0	0	0	-30	0	0	0	0	0	0	0	0	-0	0	0	-30	0	0	0	0	0	54	-8	2	-100	6	0	0	0	37	0	0	0	
0	0	0	7.59464	-0	0	44	-1	-9	-83	6	0	0	0	63	-15	-2	-13	-23	-5	0	0	0	142	0	0	0	-36	-13	-7	-8	9	0	0	0	-6	-0	0	0	-30	0	0	0	0	0	0	0	0	
0	0	0	7.59464	-0	0	44	-1	-9	-83	6	0	0	0	63	-15	-2	-13	-23	-5	0	0	0	142	0	0	0	-0	0	0	-30	0	0	0	0	0	-0	0	0	-30	0	0	0	0	0	0	0	0	
0	0	0	7.59464	-0	0	44	-1	-9	-83	6	0	0	0	63	-15	-2	-13	-23	-5	0	0	0	142	0	0	0	70	-9	8	-3	7	0	0	0	-10	-0	0	0	-30	0	0	0	0	0	0	0	0	
0	0	0	7.59464	-0	0	-0	0	0	-30	0	0	0	0	0	-0	0	0	-30	0	0	0	0	0	0	0	0	104	-8	9	-77	6	0	0	0	81	-0	0	0	-30	0	0	0	0	0	0	0	0	
0	0	0	7.59464	-0	0	-0	0	0	-30	0	0	0	0	0	50	-20	14	-80	-8	0	0	0	-33	0	0	0	-0	0	0	-30	0	0	0	0	0	-0	0	0	-30	0	0	0	0	0	0	0	0	
0	0	0	7.59464	-0	0	-0	0	0	-30	0	0	0	0	0	-0	0	0	-30	0	0	0	0	0	0	0	0	-0	0	0	-30	0	0	0	0	0	-0	0	0	-30	0	0	0	0	0	0	0	0	
0	0	0	21.8014	-0	0	-34	-1	-14	-36	9	0	0	0	157	21	-16	14	-77	-10	0	0	0	-6	0	0	0	66	-7	9	-89	4	0	0	0	-112	61	-4	-3	-112	-2	0	0	0	54	0	0	0	
0	0	0	21.8014	-0	0	-0	0	0	-30	0	0	0	0	0	-0	0	0	-30	0	0	0	0	0	0	0	0	55	-14	-1	-92	0	0	0	0	-21	43	-12	-8	-111	0	0	0	0	-133	0	0	0	
0	0	0	21.8014	-0	0	87	-6	3	-84	9	0	0	0	45	-15	-23	-2	-48	-7	0	0	0	-172	0	0	0	43	-3	3	-97	-6	0	0	0	-161	27	-2	5	-102	4	0	0	0	-18	0	0	0	
0	0	0	21.8014	-0	0	83	-7	-9	-96	-4	0	0	0	-1	-0	0	0	-30	0	0	0	0	0	0	0	0	-0	0	0	-30	0	0	0	0	0	-0	0	0	-30	0	0	0	0	0	0	0	0	
0	0	0	12.2648	-0	0	-0	0	0	-30	0	0	0	0	0	69	-2	-1	-117	8	0	0	0	-147	0	0	0	1	0	6	-82	-3	0	0	0	146	-0	0	0	-30	0	0	0	0	0	0	0	0	
0	0	0	12.2648	-0	0	57	-13	8	-119	10	0	0	0	11	-0	0	0	-30	0	0	0	0	0	0	0	0	-21	-10	3	-54	8	0	0	0	97	-0	0	0	-30	0	0	0	0	0	0	0	0	
0	0	0	12.2648	-0	0	57	-13	8	-119	10	0	0	0	11	-0	0	0	-30	0	0	0	0	0	0	0	0	-21	-10	3	-54	8	0	0	0	97	50	-8	5	-91	8	0	0	0	124	0	0	0	
0	0	0	12.2648	-0	0	-0	0	0	-30	0	0	0	0	0	27	-5	-8	-108	6	0	0	0	51	0	0	0	-0	0	0	-30	0	0	0	0	0	35	-10	4	-90	8	0	0	0	75	0	0	0	
0	0	0	12.2648	-0	0	-0	0	0	-30	0	0	0	0	0	-0	0	0	-30	0	0	0	0	0	0	0	0	12	-16	7	-64	9	0	0	0	146	-0	0	0	-30	0	0	0	0	0	0	0	0	
0	0	0	12.2648	-0	0	-0	0	0	-30	0	0	0	0	0	-0	0	0	-30	0	0	0	0	0	0	0	0	12	-16	7	-64	9	0	0	0	146	-0	0	0	-30	0	0	0	0	0	0	0	0	
0	0	0	12.2648	-0	0	-0	0	0	-30	0	0	0	0	0	52	-25	12	-88	5	0	0	0	110	0	0	0	12	-16	7	-64	9	0	0	0	146	-0	0	0	-30	0	0	0	0	0	0	0	0	
0	0	0	12.2648	-0	0	-0	0	0	-30	0	0	0	0	0	52	-25	12	-88	5	0	0	0	110	0	0	0	12	-16	7	-64	9	0	0	0	146	-0	0	0	-30	0	0	0	0	0	0	0	0	
0	0	0	12.2648	-0	0	52	-25	12	-88	5	0	0	0	110	52	-25	12	-88	5	0	0	0	110	0	0	0	12	-16	7	-64	9	0	0	0	146	-0	0	0	-30	0	0	0	0	0	0	0	0	
0	0	0	12.2648	-0	0	-0	0	0	-30	0	0	0	0	0	-0	0	0	-30	0	0	0	0	0	0	0	0	-9	-14	1	-45	8	0	0	0	52	-0	0	0	-30	0	0	0	0	0	0	0	0	
0	0	0	12.2648	-0	0	-0	0	0	-30	0	0	0	0	0	-0	0	0	-30	0	0	0	0	0	0	0	0	-9	-14	1	-45	8	0	0	0	52	28	0	14	-52	7	0	0	0	-63	0	0	0	
0	0	0	12.2648	-0	0	-0	0	0	-30	0	0	0	0	0	-0	0	0	-30	0	0	0	0	0	0	0	0	-0	0	0	-30	0	0	0	0	0	11	-8	-9	-42	2	0	0	0	-162	0	0	0	
0	0	0	12.2648	-0	0	-0	0	0	-30	0	0	0	0	0	-0	0	0	-30	0	0	0	0	0	0	0	0	24	0	2	-43	5	0	0	0	-16	11	-8	-9	-42	2	0	0	0	-162	0	0	0	
0	0	0	12.2648	-0	0	-0	0	0	-30	0	0	0	0	0	-0	0	0	-30	0	0	0	0	0	0	0	0	24	0	2	-43	5	0	0	0	-16	11	-8	-9	-42	2	0	0	0	-162	0	0	0	
0	0	0	12.2648	-0	0	-0	0	0	-30	0	0	0	0	0	44	-1	-9	-83	6	0	0	0	63	0	0	0	24	0	2	-43	5	0	0	0	-16	11	-8	-9	-42	2	0	0	0	-162	0	0	0	
0	0	0	-3.65222	-0	0	-0	0	0	-30	0	0	0	0	0	-0	0	0	-30	0	0	0	0	0	0	0	0	-0	0	0	-30	0	0	0	0	0	-0	0	0	-30	0	0	0	0	0	0	0	0	
0	0	0	-3.65222	-0	0	67	0	10	-45	4	0	0	0	-109	-0	0	0	-30	0	0	0	0	0	0	0	0	-0	0	0	-30	0	0	0	0	0	-0	0	0	-30	0	0	0	0	0	0	0	0	
0	0	0	-3.65222	-0	0	71	0	3	-68	0	0	0	0	-169	-0	0	0	-30	0	0	0	0	0	0	0	0	-0	0	0	-30	0	0	0	0	0	-0	0	0	-30	0	0	0	0	0	0	0	0	
0	0	0	-3.65222	-0	0	71	0	3	-68	0	0	0	0	-169	-0	0	0	-30	0	0	0	0	0	0	0	0	-0	0	0	-30	0	0	0	0	0	42	-20	2	-4	2	0	0	0	-132	0	0	0	
0	0	0	-3.65222	-0	0	71	0	3	-68	0	0	0	0	-169	-0	0	0	-30	0	0	0	0	0	0	0	0	-0	0	0	-30	0	0	0	0	0	42	-20	2	-4	2	0	0	0	-132	0	0	0	
0	0	0	-3.65222	-0	0	71	0	3	-68	0	0	0	0	-169	-0	0	0	-30	0	0	0	0	0	0	0	0	49	-4	-5	-13	9	0	0	0	16	42	-20	2	-4	2	0	0	0	-132	0	0	0	
0	0	0	-3.65222	-0	0	70	-7	-2	-85	1	0	0	0	127	-0	0	0	-30	0	0	0	0	0	0	0	0	65	-4	-6	-56	1	0	0	0	107	59	-18	4	-51	-8	0	0	0	-11	0	0	0	
0	0	0	-3.65222	-0	0	-0	0	0	-30	0	0	0	0	0	65	-4	-6	-56	1	0	0	0	107	0	0	0	-0	0	0	-30	0	0	0	0	0	-0	-23	0	-52	-2	0	0	0	99	0	0	0	
0	0	0	-3.65222	-0	0	-0	0	0	-30	0	0	0	0	0	65	-4	-6	-56	1	0	0	0	107	0	0	0	-0	0	0	-30	0	0	0	0	0	-0	-23	0	-52	-2	0	0	0	99	0	0	0	
0	0	0	-3.65222	-0	0	42	-20	2	-4	2	0	0	0	-132	65	-4	-6	-56	1	0	0	0	107	0	0	0	-0	0	0	-30	0	0	0	0	0	-0	-23	0	-52	-2	0	0	0	99	0	0	0	
0	0	0	-3.65222	-0	0	59	-18	4	-51	-8	0	0	0	-11	63	-8	-12	-74	3	0	0	0	166	0	0	0	-0	0	0	-30	0	0	0	0	0	-0	0	0	-30	0	0	0	0	0	0	0	0	
0	0	0	-3.65222	-0	0	59	-18	4	-51	-8	0	0	0	-11	63	-8	-12	-74	3	0	0	0	166	0	0	0	-0	0	0	-30	0	0	0	0	0	50	-20	14	-80	-8	0	0	0	-33	0	0	0	
0	0	0	-3.65222	-0	0	-0	0	0	-30	0	0	0	0	0	-0	0	0	-30	0	0	0	0	0	0	0	0	-0	0	0	-30	0	0	0	0	0	36	-29	12	-77	-1	0	0	0	107	0	0	0	
0	0	0	-3.65222	-0	0	-0	0	0	-30	0	0	0	0	0	-0	0	0	-30	0	0	0	0	0	0	0	0	62	-3	-11	-21	1	0	0	0	-48	-0	0	0	-30	0	0	0	0	0	0	0	0	
0	0	0	-3.65222	-0	0	-0	0	0	-30	0	0	0	0	0	-0	0	0	-30	0	0	0	0	0	0	0	0	-0	0	0	-30	0	0	0	0	0	-0	0	0	-30	0	0	0	0	0	0	0	0	
0	0	0	-3.65222	-0	0	-0	-23	0	-52	-2	0	0	0	99	-0	0	0	-30	0	0	0	0	0	0	0	0	75	-3	-4	-97	-4	0	0	0	-125	52	-8	-13	-98	8	0	0	0	-151	0	0	0	
0	0	0	-3.65222	-0	0	-0	-23	0	-52	-2	0	0	0	99	-0	0	0	-30	0	0	0	0	0	0	0	0	75	-3	-4	-97	-4	0	0	0	-125	52	-8	-13	-98	8	0	0	0	-151	0	0	0	
0	0	0	-3.65222	-0	0	-0	-23	0	-52	-2	0	0	0	99	47	-7	6	-0	7	0	0	0	-179	0	0	0	75	-3	-4	-97	-4	0	0	0	-125	52	-8	-13	-98	8	0	0	0	-151	0	0	0	
0	0	0	-3.65222	-0	0	-0	0	0	-30	0	0	0	0	0	70	-6	7	-59	9	0	0	0	128	0	0	0	-0	0	0	-30	0	0	0	0	0	-0	0	0	-30	0	0	0	0	0	0	0	0	
0	0	0	1.90915	-0	0	44	-1	-9	-83	6	0	0	0	63	55	-16	-9	-82	2	0	0	0	-11	0	0	0	17	-3	-9	-79	-4	0	0	0	-34	-0	0	0	-30	0	0	0	0	0	0	0	0	
0	0	0	1.90915	-0	0	23	-2	-12	-74	3	0	0	0	119	34	-20	-12	-80	4	0	0	0	-173	0	0	0	-0	0	0	-30	0	0	0	0	0	-0	0	0	-30	0	0	0	0	0	0	0	0	
0	0	0	1.90915	-0	0	23	-2	-12	-74	3	0	0	0	119	34	-20	-12	-80	4	0	0	0	-173	0	0	0	-0	0	0	-30	0	0	0	0	0	44	-1	-9	-83	6	0	0	0	63	0	0	0	
0	0	0	1.90915	-0	0	-0	0	0	-30	0	0	0	0	0	13	-18	-11	-72	4	0	0	0	-22	0	0	0	-0	0	0	-30	0	0	0	0	0	23	-2	-12	-74	3	0	0	0	119	0	0	0	
